<svg xmlns="http://www.w3.org/2000/svg" xmlns:xlink="http://www.w3.org/1999/xlink" viewBox="-5.0 -10.0 110.0 135.0" version="1.1" x="0px" y="0px"><title>finger heart</title><g stroke="none" stroke-width="1" fill="none" fill-rule="evenodd"><path d="M50,12 C70.9868205,12 88,29.0131795 88,50 C88,52.3493287 87.7868037,54.6488627 87.3787027,56.8803103 C87.2130069,56.38495 86.9567857,55.9105127 86.6077526,55.4812829 C85.802127,54.4905503 84.6622737,53.9310198 83.4823328,53.8336063 C83.6248459,52.5767678 83.6981132,51.2969401 83.6981132,50 C83.6981132,31.389046 68.610954,16.3018868 50,16.3018868 C31.389046,16.3018868 16.3018868,31.389046 16.3018868,50 C16.3018868,68.610954 31.389046,83.6981132 50,83.6981132 C55.8059675,83.6981132 61.2689915,82.2297977 66.0379953,79.6442433 C66.7805463,80.8803544 67.802613,81.9740155 69.0364001,82.8960526 C63.4388309,86.1414791 56.9364559,88 50,88 C29.0131795,88 12,70.9868205 12,50 C12,29.0131795 29.0131795,12 50,12 Z M86.2151158,61.5430285 C85.8399877,62.7209758 85.4089799,63.8739952 84.9252078,64.9989712 C84.5390677,64.6388501 84.1280849,64.2818199 83.6910962,63.9274119 C83.6219652,63.871345 83.5524813,63.8167327 83.4826583,63.763554 L85.9458189,61.7792148 L85.9599577,61.7677654 C86.0197967,61.7191067 86.0780489,61.6692199 86.1347076,61.6181709 Z" fill="#000000" fill-rule="nonzero"/><path d="M87.8243596,54.492016 C89.8799303,57.0199899 89.5524552,60.7086947 87.1198655,62.8401893 L86.9301142,62.9997949 L85.9378409,63.8008243 C91.6315532,69.0873032 92.5685481,75.2674206 88.6255904,80.8436503 C84.6050846,86.5295504 75.8507215,88.6220865 69.8997021,85.3151555 C63.4762601,81.7457032 61.2067209,75.1677252 64.8780196,68.2630166 C65.40452,67.2728133 66.4740871,66.0833808 67.8231974,64.9557883 L68.0251137,64.7890373 L67.427922,64.3149258 C66.87351,63.8806485 66.2978129,63.4457857 65.7008926,63.0104213 L65.0969002,62.5748927 C62.8575304,60.9782727 62.336522,57.8685772 63.9331825,55.6292332 L64.0954088,55.4129603 C65.7856608,53.2657485 68.7691744,52.5964575 71.2243165,53.8449638 C72.8662224,54.6799134 74.4072133,55.5250447 75.8473347,56.3807055 L79.2998354,53.5960787 C81.9032932,51.4965968 85.7142133,51.8971261 87.8243596,54.492016 Z M69.802821,56.6402896 C68.6536409,56.0559005 67.2500804,56.3948233 66.4942094,57.4392323 L66.4037852,57.5765024 C65.916313,58.3926833 66.1297911,59.4598622 66.9174726,60.0214613 C68.6265675,61.2400522 70.1842574,62.4603846 71.5894692,63.6820895 C72.3702028,64.360867 72.2911695,65.5963831 71.4303133,66.1701517 C69.6248332,67.3735208 68.1188955,68.8476663 67.6469432,69.7352794 C64.8088806,75.0728989 66.441908,79.8060264 71.4229631,82.5739565 C75.9620676,85.0962984 82.9606224,83.4234493 86.0650501,79.0330896 C89.2734424,74.4957008 88.2832263,69.6705999 82.7034105,65.1452382 C82.4506547,64.9402473 82.1910444,64.7580126 81.9246244,64.5977197 C81.8419184,64.5479593 81.7639837,64.4906685 81.6918128,64.4265769 L81.3816988,64.1511456 C78.4619151,61.5876461 74.6018574,59.0807179 69.802821,56.6402896 Z M81.2684212,56.037219 L78.6532999,58.1463331 C80.4427178,59.3417823 82.0418246,60.5575518 83.4507382,61.7945439 L83.4406835,61.7851905 L84.970705,60.5512235 C86.2136692,59.5404852 86.4019374,57.7134886 85.3912441,56.4705316 C84.3706976,55.2155351 82.5275633,55.0218209 81.2684212,56.037219 Z" fill="#000000" fill-rule="nonzero"/><path d="M55,35.6 C58.5732736,35.6 61.6172161,38.150163 62.2717473,41.6223984 C62.414976,42.3822152 61.9151325,43.1142784 61.1553157,43.2575071 C60.3954988,43.4007358 59.6634357,42.9008923 59.520207,42.1410755 C59.1139735,39.9860396 57.2208344,38.4 55,38.4 C52.8026399,38.4 50.9235038,39.9531478 50.4920562,42.0784266 C50.3382288,42.8361689 49.5992557,43.3257386 48.8415134,43.1719112 C48.0837712,43.0180838 47.5942015,42.2791106 47.7480289,41.5213684 C48.44315,38.0972534 51.4645489,35.6 55,35.6 Z" fill="#000000" fill-rule="nonzero"/><path d="M31.0469885,49.9458352 C31.8729271,49.8816708 32.594498,50.4992109 32.6586623,51.3251494 C33.0268693,56.0647998 37.0035128,59.4999998 42.4999994,59.4999998 C48.0945386,59.4999998 51.8715628,56.3462195 52.3053599,51.5159186 C52.3794606,50.6908122 53.108412,50.0820018 53.9335184,50.1561025 C54.7586248,50.2302033 55.3674352,50.9591547 55.2933345,51.7842611 C54.7151423,58.2223911 49.592201,62.4999998 42.4999994,62.4999998 C35.4795762,62.4999998 30.160822,57.9054253 29.6676743,51.5575089 C29.60351,50.7315704 30.22105,50.0099995 31.0469885,49.9458352 Z" fill="#000000" fill-rule="nonzero" transform="translate(42.481268, 56.220627) rotate(-1.000000) translate(-42.481268, -56.220627) "/><path d="M29,45 C32.0241508,45 33.5968857,42.7614237 33.5968857,40 C33.5968857,37.2385763 31.7614237,35 29,35 C26.2385763,35 24.3697128,37.2385763 24.3697128,40 C24.3697128,42.7614237 25.9758492,45 29,45 Z" fill="#000000" fill-rule="nonzero"/><path d="M76.253829,39.9674681 C74.9970045,38.5148013 72.7537125,38.773791 71.521466,40.2386326 L71.0924699,40.7488645 L70.6634738,40.2386326 C69.4312272,38.773791 67.1879352,38.5148013 65.9305522,39.9674681 C65.1865121,40.8280002 64.9407331,41.7034741 65.0116738,42.5767343 C65.0842904,43.4710237 65.4920601,44.4073712 66.1422573,45.3481459 C67.3689179,47.1245498 69.3619622,48.7819735 71.0924699,50 C72.8235361,48.7825269 74.8160218,47.1245498 76.0426825,45.3481459 C76.6923211,44.4073712 77.101208,43.4710237 77.1732659,42.5767343 C77.2442067,41.7034741 76.9984277,40.8280002 76.2543876,39.9680215 L76.253829,39.9674681 Z" fill="#000000" fill-rule="nonzero"/></g><text x="0.0" y="117.5" font-size="5.0" font-weight="bold" font-family="Arbeit Regular, Helvetica, Arial-Unicode, Arial, Sans-serif" fill="#000000">Created by Slash</text><text x="0.0" y="122.5" font-size="5.0" font-weight="bold" font-family="Arbeit Regular, Helvetica, Arial-Unicode, Arial, Sans-serif" fill="#000000">from Noun Project</text></svg>